<svg xmlns="http://www.w3.org/2000/svg" xmlns:xlink="http://www.w3.org/1999/xlink" width="500" zoomAndPan="magnify" viewBox="0 0 375 374.999991" height="500" preserveAspectRatio="xMidYMid meet" version="1.0"><defs><g/><clipPath id="7e4f682800"><path d="M 278.113281 164.167969 L 302.5625 164.167969 L 302.5625 181.097656 L 278.113281 181.097656 Z M 278.113281 164.167969 " clip-rule="nonzero"/></clipPath><clipPath id="59f850330a"><path d="M 277.074219 167.242188 L 297.265625 167.242188 L 297.265625 182.917969 L 277.074219 182.917969 Z M 277.074219 167.242188 " clip-rule="nonzero"/></clipPath></defs><g fill="#dda144" fill-opacity="1"><g transform="translate(76.89945, 210.813263)"><g><path d="M 24.34375 -45.4375 C 26.875 -45.4375 29.367188 -45.148438 31.828125 -44.578125 C 34.296875 -44.003906 36.132812 -43.425781 37.34375 -42.84375 L 39.15625 -41.984375 L 34.15625 -32.015625 C 30.71875 -33.847656 27.445312 -34.765625 24.34375 -34.765625 C 22.625 -34.765625 21.40625 -34.578125 20.6875 -34.203125 C 19.976562 -33.828125 19.625 -33.125 19.625 -32.09375 C 19.625 -31.863281 19.648438 -31.632812 19.703125 -31.40625 C 19.765625 -31.175781 19.878906 -30.957031 20.046875 -30.75 C 20.222656 -30.550781 20.378906 -30.378906 20.515625 -30.234375 C 20.660156 -30.097656 20.90625 -29.941406 21.25 -29.765625 C 21.59375 -29.597656 21.863281 -29.46875 22.0625 -29.375 C 22.269531 -29.289062 22.601562 -29.160156 23.0625 -28.984375 C 23.519531 -28.816406 23.863281 -28.691406 24.09375 -28.609375 C 24.320312 -28.523438 24.707031 -28.394531 25.25 -28.21875 C 25.800781 -28.050781 26.21875 -27.9375 26.5 -27.875 C 28.28125 -27.363281 29.828125 -26.789062 31.140625 -26.15625 C 32.460938 -25.53125 33.851562 -24.671875 35.3125 -23.578125 C 36.78125 -22.484375 37.914062 -21.101562 38.71875 -19.4375 C 39.519531 -17.78125 39.921875 -15.890625 39.921875 -13.765625 C 39.921875 -3.722656 32.953125 1.296875 19.015625 1.296875 C 15.859375 1.296875 12.859375 0.804688 10.015625 -0.171875 C 7.179688 -1.148438 5.132812 -2.125 3.875 -3.09375 L 1.984375 -4.640625 L 8.171875 -15.0625 C 8.628906 -14.65625 9.226562 -14.179688 9.96875 -13.640625 C 10.71875 -13.097656 12.066406 -12.351562 14.015625 -11.40625 C 15.972656 -10.457031 17.671875 -9.984375 19.109375 -9.984375 C 22.253906 -9.984375 23.828125 -11.046875 23.828125 -13.171875 C 23.828125 -14.140625 23.425781 -14.894531 22.625 -15.4375 C 21.820312 -15.988281 20.457031 -16.609375 18.53125 -17.296875 C 16.613281 -17.984375 15.113281 -18.613281 14.03125 -19.1875 C 11.269531 -20.625 9.085938 -22.242188 7.484375 -24.046875 C 5.878906 -25.859375 5.078125 -28.253906 5.078125 -31.234375 C 5.078125 -35.710938 6.8125 -39.195312 10.28125 -41.6875 C 13.75 -44.1875 18.4375 -45.4375 24.34375 -45.4375 Z M 24.34375 -45.4375 "/></g></g></g><g fill="#dda144" fill-opacity="1"><g transform="translate(121.720185, 210.813263)"><g><path d="M 9.328125 -5.234375 C 4.429688 -9.597656 1.984375 -15.191406 1.984375 -22.015625 C 1.984375 -28.847656 4.535156 -34.457031 9.640625 -38.84375 C 14.742188 -43.238281 21.050781 -45.4375 28.5625 -45.4375 C 35.96875 -45.4375 42.207031 -43.226562 47.28125 -38.8125 C 52.351562 -34.394531 54.890625 -28.800781 54.890625 -22.03125 C 54.890625 -15.257812 52.410156 -9.675781 47.453125 -5.28125 C 42.492188 -0.894531 36.195312 1.296875 28.5625 1.296875 C 20.644531 1.296875 14.234375 -0.878906 9.328125 -5.234375 Z M 21.125 -29.515625 C 19.144531 -27.566406 18.15625 -25.070312 18.15625 -22.03125 C 18.15625 -18.988281 19.097656 -16.503906 20.984375 -14.578125 C 22.878906 -12.660156 25.378906 -11.703125 28.484375 -11.703125 C 31.460938 -11.703125 33.910156 -12.675781 35.828125 -14.625 C 37.753906 -16.570312 38.71875 -19.039062 38.71875 -22.03125 C 38.71875 -25.070312 37.726562 -27.566406 35.75 -29.515625 C 33.769531 -31.460938 31.347656 -32.4375 28.484375 -32.4375 C 25.554688 -32.4375 23.101562 -31.460938 21.125 -29.515625 Z M 21.125 -29.515625 "/></g></g></g><g fill="#dda144" fill-opacity="1"><g transform="translate(181.079458, 210.813263)"><g><path d="M 5.15625 0 L 5.15625 -74 L 20.390625 -74 L 20.390625 0 Z M 5.15625 0 "/></g></g></g><g fill="#dda144" fill-opacity="1"><g transform="translate(209.124938, 210.813263)"><g><path d="M 19.53125 -44.140625 L 19.53125 -23.140625 C 19.53125 -18.785156 20.1875 -15.6875 21.5 -13.84375 C 22.820312 -12.007812 25.0625 -11.09375 28.21875 -11.09375 C 31.375 -11.09375 33.613281 -12.007812 34.9375 -13.84375 C 36.257812 -15.6875 36.921875 -18.785156 36.921875 -23.140625 L 36.921875 -44.140625 L 52.140625 -44.140625 L 52.140625 -19.453125 C 52.140625 -12.109375 50.234375 -6.8125 46.421875 -3.5625 C 42.609375 -0.320312 36.539062 1.296875 28.21875 1.296875 C 19.90625 1.296875 13.835938 -0.320312 10.015625 -3.5625 C 6.203125 -6.8125 4.296875 -12.109375 4.296875 -19.453125 L 4.296875 -44.140625 Z M 19.53125 -44.140625 "/></g></g></g><g fill="#dda144" fill-opacity="1"><g transform="translate(268.054087, 210.813263)"><g><path d="M 14.96875 -18.40625 C 17.726562 -18.40625 20.066406 -17.445312 21.984375 -15.53125 C 23.910156 -13.613281 24.875 -11.273438 24.875 -8.515625 C 24.875 -5.816406 23.910156 -3.503906 21.984375 -1.578125 C 20.066406 0.335938 17.726562 1.296875 14.96875 1.296875 C 12.269531 1.296875 9.957031 0.335938 8.03125 -1.578125 C 6.113281 -3.503906 5.15625 -5.816406 5.15625 -8.515625 C 5.15625 -11.273438 6.113281 -13.613281 8.03125 -15.53125 C 9.957031 -17.445312 12.269531 -18.40625 14.96875 -18.40625 Z M 14.96875 -18.40625 "/></g></g></g><g clip-path="url(#7e4f682800)"><path fill="#689f38" d="M 302.5625 165.136719 C 298.488281 168.382812 296.40625 173.308594 293.875 176.097656 C 277.816406 193.785156 265.1875 157.941406 302.5625 165.136719 " fill-opacity="1" fill-rule="evenodd"/></g><g clip-path="url(#59f850330a)"><path fill="#558b2f" d="M 277.074219 181.605469 C 280.316406 177.167969 282.933594 172.4375 288.933594 169.59375 C 291.367188 168.441406 291.855469 168.007812 294.578125 167.375 L 294.546875 167.382812 C 295.679688 167.234375 296.152344 167.332031 297.234375 167.414062 C 296.359375 167.539062 296.984375 167.480469 295.921875 167.507812 C 293.359375 167.574219 291.367188 168.898438 289.15625 170.023438 C 282.941406 173.1875 280.863281 178.074219 277.246094 182.921875 L 277.074219 181.605469 " fill-opacity="1" fill-rule="evenodd"/></g><path fill="#558b2f" d="M 287.109375 170.628906 C 287.535156 170.574219 287.976562 170.53125 288.429688 170.507812 C 290.703125 170.378906 291.226562 170.199219 293.558594 170.570312 L 293.535156 170.566406 C 294.464844 170.808594 294.804688 171.035156 295.621094 171.445312 C 294.898438 171.265625 295.40625 171.417969 294.566406 171.101562 C 292.542969 170.335938 290.554688 170.738281 288.460938 170.914062 C 288.003906 170.953125 287.558594 171.007812 287.128906 171.078125 C 287.179688 170.929688 287.171875 170.769531 287.109375 170.628906 " fill-opacity="1" fill-rule="evenodd"/><path fill="#558b2f" d="M 282.96875 173.855469 C 282.992188 173.855469 283.015625 173.851562 283.042969 173.851562 C 285.734375 173.703125 286.355469 173.488281 289.113281 173.925781 L 289.082031 173.921875 C 290.1875 174.210938 290.585938 174.476562 291.554688 174.964844 C 290.699219 174.75 291.300781 174.929688 290.304688 174.554688 C 287.910156 173.648438 285.558594 174.125 283.082031 174.332031 L 283.027344 174.339844 C 283.066406 174.175781 283.042969 174.003906 282.96875 173.855469 " fill-opacity="1" fill-rule="evenodd"/><path fill="#558b2f" d="M 289.71875 169.675781 C 289.878906 169.441406 290.035156 169.199219 290.171875 168.953125 C 290.875 167.710938 291.183594 167.421875 291.425781 166.167969 L 291.421875 166.179688 C 291.429688 165.679688 291.296875 165.503906 291.113281 165.070312 C 291.101562 165.457031 291.085938 165.1875 291.175781 165.632812 C 291.386719 166.710938 290.496094 167.804688 289.792969 168.949219 C 289.636719 169.199219 289.472656 169.441406 289.296875 169.675781 C 289.449219 169.644531 289.597656 169.644531 289.71875 169.675781 " fill-opacity="1" fill-rule="evenodd"/><path fill="#558b2f" d="M 284.324219 173.121094 C 284.332031 173.105469 284.34375 173.089844 284.351562 173.074219 C 285.339844 171.316406 285.738281 170.929688 286.1875 169.082031 L 286.183594 169.101562 C 286.257812 168.351562 286.132812 168.070312 285.976562 167.394531 C 285.910156 167.972656 285.929688 167.566406 285.96875 168.25 C 286.070312 169.894531 284.882812 171.398438 283.90625 173.007812 L 283.886719 173.042969 C 284.050781 173.03125 284.207031 173.058594 284.324219 173.121094 " fill-opacity="1" fill-rule="evenodd"/><g fill="#689f38" fill-opacity="1"><g transform="translate(98.807885, 235.643452)"><g><path d="M 2.421875 -0.671875 C 2.421875 -0.484375 2.351562 -0.320312 2.21875 -0.1875 C 2.09375 -0.0625 1.9375 0 1.75 0 C 1.5625 0 1.40625 -0.0625 1.28125 -0.1875 C 1.15625 -0.320312 1.09375 -0.484375 1.09375 -0.671875 L 1.09375 -9.609375 C 1.09375 -9.796875 1.15625 -9.953125 1.28125 -10.078125 C 1.414062 -10.210938 1.578125 -10.28125 1.765625 -10.28125 C 1.953125 -10.28125 2.109375 -10.210938 2.234375 -10.078125 C 2.359375 -9.953125 2.421875 -9.796875 2.421875 -9.609375 Z M 2.421875 -0.671875 "/></g></g></g><g fill="#689f38" fill-opacity="1"><g transform="translate(104.740182, 235.643452)"><g><path d="M 2.234375 -0.671875 C 2.234375 -0.484375 2.171875 -0.320312 2.046875 -0.1875 C 1.921875 -0.0625 1.757812 0 1.5625 0 C 1.382812 0 1.234375 -0.0625 1.109375 -0.1875 C 0.984375 -0.320312 0.921875 -0.484375 0.921875 -0.671875 L 0.921875 -6.6875 C 0.921875 -6.863281 0.984375 -7.015625 1.109375 -7.140625 C 1.234375 -7.273438 1.382812 -7.34375 1.5625 -7.34375 C 1.757812 -7.34375 1.921875 -7.273438 2.046875 -7.140625 C 2.171875 -7.015625 2.234375 -6.863281 2.234375 -6.6875 Z M 1.578125 -8.265625 C 1.304688 -8.265625 1.113281 -8.3125 1 -8.40625 C 0.882812 -8.507812 0.828125 -8.664062 0.828125 -8.875 L 0.828125 -9.09375 C 0.828125 -9.320312 0.890625 -9.476562 1.015625 -9.5625 C 1.140625 -9.65625 1.328125 -9.703125 1.578125 -9.703125 C 1.835938 -9.703125 2.023438 -9.65625 2.140625 -9.5625 C 2.265625 -9.46875 2.328125 -9.3125 2.328125 -9.09375 L 2.328125 -8.875 C 2.328125 -8.65625 2.265625 -8.5 2.140625 -8.40625 C 2.015625 -8.3125 1.828125 -8.265625 1.578125 -8.265625 Z M 1.578125 -8.265625 "/></g></g></g><g fill="#689f38" fill-opacity="1"><g transform="translate(110.311418, 235.643452)"><g><path d="M 6.546875 -7.34375 C 6.722656 -7.34375 6.867188 -7.285156 6.984375 -7.171875 C 7.109375 -7.054688 7.171875 -6.921875 7.171875 -6.765625 C 7.171875 -6.679688 7.140625 -6.566406 7.078125 -6.421875 L 4.4375 -0.421875 C 4.375 -0.296875 4.289062 -0.195312 4.1875 -0.125 C 4.09375 -0.0507812 3.984375 -0.0078125 3.859375 0 C 3.710938 0.0195312 3.578125 -0.00390625 3.453125 -0.078125 C 3.328125 -0.148438 3.234375 -0.265625 3.171875 -0.421875 L 0.53125 -6.421875 C 0.476562 -6.554688 0.453125 -6.671875 0.453125 -6.765625 C 0.453125 -6.910156 0.507812 -7.039062 0.625 -7.15625 C 0.75 -7.28125 0.910156 -7.34375 1.109375 -7.34375 C 1.242188 -7.34375 1.367188 -7.304688 1.484375 -7.234375 C 1.597656 -7.171875 1.6875 -7.070312 1.75 -6.9375 L 3.84375 -2.0625 L 5.9375 -6.9375 C 6.070312 -7.207031 6.273438 -7.34375 6.546875 -7.34375 Z M 6.546875 -7.34375 "/></g></g></g><g fill="#689f38" fill-opacity="1"><g transform="translate(120.340288, 235.643452)"><g><path d="M 7.375 -3.921875 C 7.363281 -3.753906 7.289062 -3.609375 7.15625 -3.484375 C 7.03125 -3.367188 6.878906 -3.3125 6.703125 -3.3125 L 1.8125 -3.3125 C 1.882812 -2.644531 2.144531 -2.101562 2.59375 -1.6875 C 3.039062 -1.28125 3.585938 -1.078125 4.234375 -1.078125 C 4.679688 -1.078125 5.039062 -1.140625 5.3125 -1.265625 C 5.59375 -1.398438 5.84375 -1.570312 6.0625 -1.78125 C 6.195312 -1.863281 6.328125 -1.90625 6.453125 -1.90625 C 6.617188 -1.90625 6.753906 -1.847656 6.859375 -1.734375 C 6.960938 -1.617188 7.015625 -1.488281 7.015625 -1.34375 C 7.015625 -1.15625 6.921875 -0.976562 6.734375 -0.8125 C 6.460938 -0.550781 6.101562 -0.328125 5.65625 -0.140625 C 5.21875 0.046875 4.769531 0.140625 4.3125 0.140625 C 3.5625 0.140625 2.898438 -0.015625 2.328125 -0.328125 C 1.753906 -0.648438 1.3125 -1.09375 1 -1.65625 C 0.695312 -2.21875 0.546875 -2.851562 0.546875 -3.5625 C 0.546875 -4.34375 0.703125 -5.023438 1.015625 -5.609375 C 1.335938 -6.203125 1.757812 -6.65625 2.28125 -6.96875 C 2.800781 -7.289062 3.363281 -7.453125 3.96875 -7.453125 C 4.5625 -7.453125 5.117188 -7.296875 5.640625 -6.984375 C 6.160156 -6.679688 6.578125 -6.257812 6.890625 -5.71875 C 7.203125 -5.1875 7.363281 -4.585938 7.375 -3.921875 Z M 3.96875 -6.21875 C 3.445312 -6.21875 3 -6.070312 2.625 -5.78125 C 2.25 -5.488281 2 -5.039062 1.875 -4.4375 L 5.96875 -4.4375 L 5.96875 -4.546875 C 5.925781 -5.035156 5.707031 -5.4375 5.3125 -5.75 C 4.914062 -6.0625 4.46875 -6.21875 3.96875 -6.21875 Z M 3.96875 -6.21875 "/></g></g></g><g fill="#689f38" fill-opacity="1"><g transform="translate(130.674657, 235.643452)"><g/></g></g><g fill="#689f38" fill-opacity="1"><g transform="translate(136.940228, 235.643452)"><g><path d="M 9.484375 -7.34375 C 9.660156 -7.34375 9.8125 -7.28125 9.9375 -7.15625 C 10.0625 -7.03125 10.125 -6.875 10.125 -6.6875 C 10.125 -6.613281 10.109375 -6.523438 10.078125 -6.421875 L 7.953125 -0.421875 C 7.890625 -0.265625 7.789062 -0.148438 7.65625 -0.078125 C 7.53125 -0.00390625 7.394531 0.0195312 7.25 0 C 7 -0.0195312 6.8125 -0.160156 6.6875 -0.421875 L 5.234375 -4.1875 L 3.90625 -0.421875 C 3.84375 -0.285156 3.757812 -0.179688 3.65625 -0.109375 C 3.5625 -0.046875 3.453125 -0.0078125 3.328125 0 C 3.191406 0.0195312 3.054688 -0.00390625 2.921875 -0.078125 C 2.785156 -0.160156 2.695312 -0.273438 2.65625 -0.421875 L 0.5 -6.421875 C 0.46875 -6.503906 0.453125 -6.59375 0.453125 -6.6875 C 0.453125 -6.863281 0.507812 -7.015625 0.625 -7.140625 C 0.75 -7.273438 0.910156 -7.34375 1.109375 -7.34375 C 1.421875 -7.34375 1.625 -7.207031 1.71875 -6.9375 L 3.375 -2.25 L 4.6875 -5.703125 C 4.800781 -5.984375 5.007812 -6.125 5.3125 -6.125 C 5.582031 -6.125 5.769531 -5.984375 5.875 -5.703125 L 7.21875 -2.3125 L 8.84375 -6.9375 C 8.945312 -7.207031 9.160156 -7.34375 9.484375 -7.34375 Z M 9.484375 -7.34375 "/></g></g></g><g fill="#689f38" fill-opacity="1"><g transform="translate(149.926957, 235.643452)"><g><path d="M 7.375 -3.921875 C 7.363281 -3.753906 7.289062 -3.609375 7.15625 -3.484375 C 7.03125 -3.367188 6.878906 -3.3125 6.703125 -3.3125 L 1.8125 -3.3125 C 1.882812 -2.644531 2.144531 -2.101562 2.59375 -1.6875 C 3.039062 -1.28125 3.585938 -1.078125 4.234375 -1.078125 C 4.679688 -1.078125 5.039062 -1.140625 5.3125 -1.265625 C 5.59375 -1.398438 5.84375 -1.570312 6.0625 -1.78125 C 6.195312 -1.863281 6.328125 -1.90625 6.453125 -1.90625 C 6.617188 -1.90625 6.753906 -1.847656 6.859375 -1.734375 C 6.960938 -1.617188 7.015625 -1.488281 7.015625 -1.34375 C 7.015625 -1.15625 6.921875 -0.976562 6.734375 -0.8125 C 6.460938 -0.550781 6.101562 -0.328125 5.65625 -0.140625 C 5.21875 0.046875 4.769531 0.140625 4.3125 0.140625 C 3.5625 0.140625 2.898438 -0.015625 2.328125 -0.328125 C 1.753906 -0.648438 1.3125 -1.09375 1 -1.65625 C 0.695312 -2.21875 0.546875 -2.851562 0.546875 -3.5625 C 0.546875 -4.34375 0.703125 -5.023438 1.015625 -5.609375 C 1.335938 -6.203125 1.757812 -6.65625 2.28125 -6.96875 C 2.800781 -7.289062 3.363281 -7.453125 3.96875 -7.453125 C 4.5625 -7.453125 5.117188 -7.296875 5.640625 -6.984375 C 6.160156 -6.679688 6.578125 -6.257812 6.890625 -5.71875 C 7.203125 -5.1875 7.363281 -4.585938 7.375 -3.921875 Z M 3.96875 -6.21875 C 3.445312 -6.21875 3 -6.070312 2.625 -5.78125 C 2.25 -5.488281 2 -5.039062 1.875 -4.4375 L 5.96875 -4.4375 L 5.96875 -4.546875 C 5.925781 -5.035156 5.707031 -5.4375 5.3125 -5.75 C 4.914062 -6.0625 4.46875 -6.21875 3.96875 -6.21875 Z M 3.96875 -6.21875 "/></g></g></g><g fill="#689f38" fill-opacity="1"><g transform="translate(160.261326, 235.643452)"><g><path d="M 2.421875 -0.671875 C 2.421875 -0.484375 2.351562 -0.320312 2.21875 -0.1875 C 2.09375 -0.0625 1.9375 0 1.75 0 C 1.5625 0 1.40625 -0.0625 1.28125 -0.1875 C 1.15625 -0.320312 1.09375 -0.484375 1.09375 -0.671875 L 1.09375 -9.609375 C 1.09375 -9.796875 1.15625 -9.953125 1.28125 -10.078125 C 1.414062 -10.210938 1.578125 -10.28125 1.765625 -10.28125 C 1.953125 -10.28125 2.109375 -10.210938 2.234375 -10.078125 C 2.359375 -9.953125 2.421875 -9.796875 2.421875 -9.609375 Z M 2.421875 -0.671875 "/></g></g></g><g fill="#689f38" fill-opacity="1"><g transform="translate(166.193622, 235.643452)"><g><path d="M 2.421875 -0.671875 C 2.421875 -0.484375 2.351562 -0.320312 2.21875 -0.1875 C 2.09375 -0.0625 1.9375 0 1.75 0 C 1.5625 0 1.40625 -0.0625 1.28125 -0.1875 C 1.15625 -0.320312 1.09375 -0.484375 1.09375 -0.671875 L 1.09375 -9.609375 C 1.09375 -9.796875 1.15625 -9.953125 1.28125 -10.078125 C 1.414062 -10.210938 1.578125 -10.28125 1.765625 -10.28125 C 1.953125 -10.28125 2.109375 -10.210938 2.234375 -10.078125 C 2.359375 -9.953125 2.421875 -9.796875 2.421875 -9.609375 Z M 2.421875 -0.671875 "/></g></g></g><g fill="#689f38" fill-opacity="1"><g transform="translate(172.125918, 235.643452)"><g><path d="M 2.65625 -0.078125 C 2.65625 0.148438 2.578125 0.414062 2.421875 0.71875 C 2.273438 1.019531 2.085938 1.273438 1.859375 1.484375 C 1.640625 1.703125 1.410156 1.8125 1.171875 1.8125 C 1.015625 1.8125 0.882812 1.769531 0.78125 1.6875 C 0.675781 1.601562 0.625 1.488281 0.625 1.34375 C 0.625 1.21875 0.65625 1.128906 0.71875 1.078125 C 0.78125 1.023438 0.851562 0.984375 0.9375 0.953125 C 1.03125 0.929688 1.101562 0.910156 1.15625 0.890625 C 1.28125 0.828125 1.378906 0.738281 1.453125 0.625 C 1.523438 0.519531 1.5625 0.40625 1.5625 0.28125 C 1.5625 0.175781 1.519531 0.0859375 1.4375 0.015625 C 1.351562 -0.0546875 1.242188 -0.09375 1.109375 -0.09375 C 0.960938 -0.09375 0.835938 -0.0546875 0.734375 0.015625 C 0.640625 -0.0351562 0.566406 -0.09375 0.515625 -0.15625 C 0.472656 -0.226562 0.453125 -0.320312 0.453125 -0.4375 C 0.460938 -0.664062 0.582031 -0.863281 0.8125 -1.03125 C 1.050781 -1.207031 1.300781 -1.296875 1.5625 -1.296875 C 1.894531 -1.296875 2.160156 -1.1875 2.359375 -0.96875 C 2.554688 -0.757812 2.65625 -0.460938 2.65625 -0.078125 Z M 2.65625 -0.078125 "/></g></g></g><g fill="#689f38" fill-opacity="1"><g transform="translate(177.891566, 235.643452)"><g/></g></g><g fill="#689f38" fill-opacity="1"><g transform="translate(184.157137, 235.643452)"><g><path d="M 4.09375 -9.078125 C 3.789062 -9.078125 3.566406 -8.984375 3.421875 -8.796875 C 3.273438 -8.617188 3.203125 -8.394531 3.203125 -8.125 L 3.203125 -7.15625 L 4.578125 -7.15625 C 4.765625 -7.15625 4.914062 -7.097656 5.03125 -6.984375 C 5.144531 -6.867188 5.203125 -6.722656 5.203125 -6.546875 C 5.203125 -6.367188 5.144531 -6.222656 5.03125 -6.109375 C 4.914062 -5.992188 4.765625 -5.9375 4.578125 -5.9375 L 3.203125 -5.9375 L 3.203125 -0.671875 C 3.203125 -0.484375 3.140625 -0.320312 3.015625 -0.1875 C 2.890625 -0.0625 2.734375 0 2.546875 0 C 2.359375 0 2.203125 -0.0625 2.078125 -0.1875 C 1.953125 -0.320312 1.890625 -0.484375 1.890625 -0.671875 L 1.890625 -5.9375 L 1.03125 -5.9375 C 0.851562 -5.9375 0.703125 -5.992188 0.578125 -6.109375 C 0.460938 -6.222656 0.40625 -6.367188 0.40625 -6.546875 C 0.40625 -6.722656 0.460938 -6.867188 0.578125 -6.984375 C 0.703125 -7.097656 0.851562 -7.15625 1.03125 -7.15625 L 1.890625 -7.15625 L 1.890625 -8.125 C 1.890625 -8.769531 2.097656 -9.285156 2.515625 -9.671875 C 2.929688 -10.054688 3.519531 -10.25 4.28125 -10.25 C 4.59375 -10.25 4.867188 -10.191406 5.109375 -10.078125 C 5.347656 -9.960938 5.46875 -9.789062 5.46875 -9.5625 C 5.46875 -9.382812 5.414062 -9.238281 5.3125 -9.125 C 5.207031 -9.007812 5.082031 -8.953125 4.9375 -8.953125 C 4.894531 -8.953125 4.789062 -8.96875 4.625 -9 C 4.414062 -9.050781 4.238281 -9.078125 4.09375 -9.078125 Z M 4.09375 -9.078125 "/></g></g></g><g fill="#689f38" fill-opacity="1"><g transform="translate(191.991911, 235.643452)"><g><path d="M 7.375 -3.921875 C 7.363281 -3.753906 7.289062 -3.609375 7.15625 -3.484375 C 7.03125 -3.367188 6.878906 -3.3125 6.703125 -3.3125 L 1.8125 -3.3125 C 1.882812 -2.644531 2.144531 -2.101562 2.59375 -1.6875 C 3.039062 -1.28125 3.585938 -1.078125 4.234375 -1.078125 C 4.679688 -1.078125 5.039062 -1.140625 5.3125 -1.265625 C 5.59375 -1.398438 5.84375 -1.570312 6.0625 -1.78125 C 6.195312 -1.863281 6.328125 -1.90625 6.453125 -1.90625 C 6.617188 -1.90625 6.753906 -1.847656 6.859375 -1.734375 C 6.960938 -1.617188 7.015625 -1.488281 7.015625 -1.34375 C 7.015625 -1.15625 6.921875 -0.976562 6.734375 -0.8125 C 6.460938 -0.550781 6.101562 -0.328125 5.65625 -0.140625 C 5.21875 0.046875 4.769531 0.140625 4.3125 0.140625 C 3.5625 0.140625 2.898438 -0.015625 2.328125 -0.328125 C 1.753906 -0.648438 1.3125 -1.09375 1 -1.65625 C 0.695312 -2.21875 0.546875 -2.851562 0.546875 -3.5625 C 0.546875 -4.34375 0.703125 -5.023438 1.015625 -5.609375 C 1.335938 -6.203125 1.757812 -6.65625 2.28125 -6.96875 C 2.800781 -7.289062 3.363281 -7.453125 3.96875 -7.453125 C 4.5625 -7.453125 5.117188 -7.296875 5.640625 -6.984375 C 6.160156 -6.679688 6.578125 -6.257812 6.890625 -5.71875 C 7.203125 -5.1875 7.363281 -4.585938 7.375 -3.921875 Z M 3.96875 -6.21875 C 3.445312 -6.21875 3 -6.070312 2.625 -5.78125 C 2.25 -5.488281 2 -5.039062 1.875 -4.4375 L 5.96875 -4.4375 L 5.96875 -4.546875 C 5.925781 -5.035156 5.707031 -5.4375 5.3125 -5.75 C 4.914062 -6.0625 4.46875 -6.21875 3.96875 -6.21875 Z M 3.96875 -6.21875 "/></g></g></g><g fill="#689f38" fill-opacity="1"><g transform="translate(202.32628, 235.643452)"><g><path d="M 7.375 -3.921875 C 7.363281 -3.753906 7.289062 -3.609375 7.15625 -3.484375 C 7.03125 -3.367188 6.878906 -3.3125 6.703125 -3.3125 L 1.8125 -3.3125 C 1.882812 -2.644531 2.144531 -2.101562 2.59375 -1.6875 C 3.039062 -1.28125 3.585938 -1.078125 4.234375 -1.078125 C 4.679688 -1.078125 5.039062 -1.140625 5.3125 -1.265625 C 5.59375 -1.398438 5.84375 -1.570312 6.0625 -1.78125 C 6.195312 -1.863281 6.328125 -1.90625 6.453125 -1.90625 C 6.617188 -1.90625 6.753906 -1.847656 6.859375 -1.734375 C 6.960938 -1.617188 7.015625 -1.488281 7.015625 -1.34375 C 7.015625 -1.15625 6.921875 -0.976562 6.734375 -0.8125 C 6.460938 -0.550781 6.101562 -0.328125 5.65625 -0.140625 C 5.21875 0.046875 4.769531 0.140625 4.3125 0.140625 C 3.5625 0.140625 2.898438 -0.015625 2.328125 -0.328125 C 1.753906 -0.648438 1.3125 -1.09375 1 -1.65625 C 0.695312 -2.21875 0.546875 -2.851562 0.546875 -3.5625 C 0.546875 -4.34375 0.703125 -5.023438 1.015625 -5.609375 C 1.335938 -6.203125 1.757812 -6.65625 2.28125 -6.96875 C 2.800781 -7.289062 3.363281 -7.453125 3.96875 -7.453125 C 4.5625 -7.453125 5.117188 -7.296875 5.640625 -6.984375 C 6.160156 -6.679688 6.578125 -6.257812 6.890625 -5.71875 C 7.203125 -5.1875 7.363281 -4.585938 7.375 -3.921875 Z M 3.96875 -6.21875 C 3.445312 -6.21875 3 -6.070312 2.625 -5.78125 C 2.25 -5.488281 2 -5.039062 1.875 -4.4375 L 5.96875 -4.4375 L 5.96875 -4.546875 C 5.925781 -5.035156 5.707031 -5.4375 5.3125 -5.75 C 4.914062 -6.0625 4.46875 -6.21875 3.96875 -6.21875 Z M 3.96875 -6.21875 "/></g></g></g><g fill="#689f38" fill-opacity="1"><g transform="translate(212.660649, 235.643452)"><g><path d="M 2.421875 -0.671875 C 2.421875 -0.484375 2.351562 -0.320312 2.21875 -0.1875 C 2.09375 -0.0625 1.9375 0 1.75 0 C 1.5625 0 1.40625 -0.0625 1.28125 -0.1875 C 1.15625 -0.320312 1.09375 -0.484375 1.09375 -0.671875 L 1.09375 -9.609375 C 1.09375 -9.796875 1.15625 -9.953125 1.28125 -10.078125 C 1.414062 -10.210938 1.578125 -10.28125 1.765625 -10.28125 C 1.953125 -10.28125 2.109375 -10.210938 2.234375 -10.078125 C 2.359375 -9.953125 2.421875 -9.796875 2.421875 -9.609375 Z M 2.421875 -0.671875 "/></g></g></g><g fill="#689f38" fill-opacity="1"><g transform="translate(218.592945, 235.643452)"><g/></g></g><g fill="#689f38" fill-opacity="1"><g transform="translate(224.858516, 235.643452)"><g><path d="M 7.078125 -7.375 C 7.265625 -7.375 7.421875 -7.3125 7.546875 -7.1875 C 7.671875 -7.0625 7.734375 -6.898438 7.734375 -6.703125 L 7.734375 -0.578125 C 7.734375 0.171875 7.570312 0.796875 7.25 1.296875 C 6.9375 1.804688 6.503906 2.179688 5.953125 2.421875 C 5.410156 2.660156 4.796875 2.78125 4.109375 2.78125 C 3.742188 2.78125 3.3125 2.710938 2.8125 2.578125 C 2.3125 2.453125 1.992188 2.320312 1.859375 2.1875 C 1.578125 2.03125 1.4375 1.84375 1.4375 1.625 C 1.4375 1.570312 1.453125 1.5 1.484375 1.40625 C 1.585938 1.175781 1.757812 1.0625 2 1.0625 C 2.125 1.0625 2.253906 1.085938 2.390625 1.140625 C 3.128906 1.421875 3.707031 1.5625 4.125 1.5625 C 4.863281 1.5625 5.429688 1.382812 5.828125 1.03125 C 6.222656 0.675781 6.421875 0.1875 6.421875 -0.4375 L 6.421875 -1.1875 C 6.222656 -0.820312 5.894531 -0.507812 5.4375 -0.25 C 4.976562 0.0078125 4.492188 0.140625 3.984375 0.140625 C 3.347656 0.140625 2.765625 -0.0195312 2.234375 -0.34375 C 1.703125 -0.664062 1.285156 -1.113281 0.984375 -1.6875 C 0.691406 -2.269531 0.546875 -2.925781 0.546875 -3.65625 C 0.546875 -4.375 0.691406 -5.019531 0.984375 -5.59375 C 1.285156 -6.175781 1.695312 -6.628906 2.21875 -6.953125 C 2.75 -7.285156 3.328125 -7.453125 3.953125 -7.453125 C 4.460938 -7.453125 4.9375 -7.332031 5.375 -7.09375 C 5.820312 -6.863281 6.171875 -6.582031 6.421875 -6.25 L 6.421875 -6.703125 C 6.421875 -6.890625 6.476562 -7.046875 6.59375 -7.171875 C 6.71875 -7.304688 6.878906 -7.375 7.078125 -7.375 Z M 4.140625 -1.078125 C 4.585938 -1.078125 4.988281 -1.1875 5.34375 -1.40625 C 5.695312 -1.625 5.972656 -1.929688 6.171875 -2.328125 C 6.367188 -2.722656 6.46875 -3.164062 6.46875 -3.65625 C 6.46875 -4.144531 6.367188 -4.582031 6.171875 -4.96875 C 5.972656 -5.363281 5.695312 -5.671875 5.34375 -5.890625 C 4.988281 -6.109375 4.585938 -6.21875 4.140625 -6.21875 C 3.691406 -6.21875 3.289062 -6.109375 2.9375 -5.890625 C 2.59375 -5.671875 2.316406 -5.363281 2.109375 -4.96875 C 1.910156 -4.570312 1.8125 -4.132812 1.8125 -3.65625 C 1.8125 -3.175781 1.910156 -2.738281 2.109375 -2.34375 C 2.316406 -1.945312 2.59375 -1.632812 2.9375 -1.40625 C 3.289062 -1.1875 3.691406 -1.078125 4.140625 -1.078125 Z M 4.140625 -1.078125 "/></g></g></g><g fill="#689f38" fill-opacity="1"><g transform="translate(235.984427, 235.643452)"><g><path d="M 4.609375 -7.453125 C 4.847656 -7.453125 5.054688 -7.390625 5.234375 -7.265625 C 5.410156 -7.140625 5.5 -6.984375 5.5 -6.796875 C 5.5 -6.566406 5.441406 -6.394531 5.328125 -6.28125 C 5.210938 -6.164062 5.070312 -6.109375 4.90625 -6.109375 C 4.820312 -6.109375 4.695312 -6.132812 4.53125 -6.1875 C 4.332031 -6.257812 4.175781 -6.296875 4.0625 -6.296875 C 3.78125 -6.296875 3.5 -6.191406 3.21875 -5.984375 C 2.945312 -5.785156 2.726562 -5.515625 2.5625 -5.171875 C 2.394531 -4.828125 2.3125 -4.441406 2.3125 -4.015625 L 2.3125 -0.671875 C 2.3125 -0.484375 2.25 -0.320312 2.125 -0.1875 C 2 -0.0625 1.835938 0 1.640625 0 C 1.441406 0 1.28125 -0.0625 1.15625 -0.1875 C 1.039062 -0.3125 0.984375 -0.472656 0.984375 -0.671875 L 0.984375 -6.609375 C 0.984375 -6.796875 1.046875 -6.953125 1.171875 -7.078125 C 1.296875 -7.210938 1.453125 -7.28125 1.640625 -7.28125 C 1.835938 -7.28125 2 -7.210938 2.125 -7.078125 C 2.25 -6.953125 2.3125 -6.796875 2.3125 -6.609375 L 2.3125 -5.90625 C 2.507812 -6.351562 2.8125 -6.71875 3.21875 -7 C 3.625 -7.289062 4.085938 -7.441406 4.609375 -7.453125 Z M 4.609375 -7.453125 "/></g></g></g><g fill="#689f38" fill-opacity="1"><g transform="translate(244.138594, 235.643452)"><g><path d="M 7.375 -3.921875 C 7.363281 -3.753906 7.289062 -3.609375 7.15625 -3.484375 C 7.03125 -3.367188 6.878906 -3.3125 6.703125 -3.3125 L 1.8125 -3.3125 C 1.882812 -2.644531 2.144531 -2.101562 2.59375 -1.6875 C 3.039062 -1.28125 3.585938 -1.078125 4.234375 -1.078125 C 4.679688 -1.078125 5.039062 -1.140625 5.3125 -1.265625 C 5.59375 -1.398438 5.84375 -1.570312 6.0625 -1.78125 C 6.195312 -1.863281 6.328125 -1.90625 6.453125 -1.90625 C 6.617188 -1.90625 6.753906 -1.847656 6.859375 -1.734375 C 6.960938 -1.617188 7.015625 -1.488281 7.015625 -1.34375 C 7.015625 -1.15625 6.921875 -0.976562 6.734375 -0.8125 C 6.460938 -0.550781 6.101562 -0.328125 5.65625 -0.140625 C 5.21875 0.046875 4.769531 0.140625 4.3125 0.140625 C 3.5625 0.140625 2.898438 -0.015625 2.328125 -0.328125 C 1.753906 -0.648438 1.3125 -1.09375 1 -1.65625 C 0.695312 -2.21875 0.546875 -2.851562 0.546875 -3.5625 C 0.546875 -4.34375 0.703125 -5.023438 1.015625 -5.609375 C 1.335938 -6.203125 1.757812 -6.65625 2.28125 -6.96875 C 2.800781 -7.289062 3.363281 -7.453125 3.96875 -7.453125 C 4.5625 -7.453125 5.117188 -7.296875 5.640625 -6.984375 C 6.160156 -6.679688 6.578125 -6.257812 6.890625 -5.71875 C 7.203125 -5.1875 7.363281 -4.585938 7.375 -3.921875 Z M 3.96875 -6.21875 C 3.445312 -6.21875 3 -6.070312 2.625 -5.78125 C 2.25 -5.488281 2 -5.039062 1.875 -4.4375 L 5.96875 -4.4375 L 5.96875 -4.546875 C 5.925781 -5.035156 5.707031 -5.4375 5.3125 -5.75 C 4.914062 -6.0625 4.46875 -6.21875 3.96875 -6.21875 Z M 3.96875 -6.21875 "/></g></g></g><g fill="#689f38" fill-opacity="1"><g transform="translate(254.472963, 235.643452)"><g><path d="M 6.890625 -7.375 C 7.085938 -7.375 7.25 -7.3125 7.375 -7.1875 C 7.5 -7.0625 7.5625 -6.898438 7.5625 -6.703125 L 7.5625 -0.671875 C 7.5625 -0.484375 7.5 -0.320312 7.375 -0.1875 C 7.25 -0.0625 7.085938 0 6.890625 0 C 6.691406 0 6.53125 -0.0625 6.40625 -0.1875 C 6.289062 -0.3125 6.234375 -0.472656 6.234375 -0.671875 L 6.234375 -1.03125 C 5.992188 -0.707031 5.664062 -0.429688 5.25 -0.203125 C 4.832031 0.0234375 4.382812 0.140625 3.90625 0.140625 C 3.269531 0.140625 2.695312 -0.0195312 2.1875 -0.34375 C 1.675781 -0.664062 1.273438 -1.113281 0.984375 -1.6875 C 0.691406 -2.269531 0.546875 -2.925781 0.546875 -3.65625 C 0.546875 -4.375 0.691406 -5.019531 0.984375 -5.59375 C 1.273438 -6.175781 1.671875 -6.628906 2.171875 -6.953125 C 2.679688 -7.285156 3.242188 -7.453125 3.859375 -7.453125 C 4.347656 -7.453125 4.800781 -7.347656 5.21875 -7.140625 C 5.644531 -6.929688 5.984375 -6.671875 6.234375 -6.359375 L 6.234375 -6.703125 C 6.234375 -6.890625 6.289062 -7.046875 6.40625 -7.171875 C 6.53125 -7.304688 6.691406 -7.375 6.890625 -7.375 Z M 4.0625 -1.078125 C 4.488281 -1.078125 4.867188 -1.1875 5.203125 -1.40625 C 5.546875 -1.632812 5.8125 -1.941406 6 -2.328125 C 6.195312 -2.722656 6.296875 -3.164062 6.296875 -3.65625 C 6.296875 -4.132812 6.195312 -4.566406 6 -4.953125 C 5.8125 -5.347656 5.546875 -5.65625 5.203125 -5.875 C 4.867188 -6.101562 4.488281 -6.21875 4.0625 -6.21875 C 3.625 -6.21875 3.234375 -6.109375 2.890625 -5.890625 C 2.554688 -5.671875 2.289062 -5.363281 2.09375 -4.96875 C 1.90625 -4.582031 1.8125 -4.144531 1.8125 -3.65625 C 1.8125 -3.164062 1.90625 -2.722656 2.09375 -2.328125 C 2.289062 -1.941406 2.554688 -1.632812 2.890625 -1.40625 C 3.234375 -1.1875 3.625 -1.078125 4.0625 -1.078125 Z M 4.0625 -1.078125 "/></g></g></g><g fill="#689f38" fill-opacity="1"><g transform="translate(265.418355, 235.643452)"><g><path d="M 2.953125 -5.984375 L 2.953125 -1.84375 C 2.953125 -1.382812 3.160156 -1.15625 3.578125 -1.15625 C 3.648438 -1.15625 3.738281 -1.171875 3.84375 -1.203125 C 3.957031 -1.234375 4.046875 -1.25 4.109375 -1.25 C 4.234375 -1.25 4.335938 -1.195312 4.421875 -1.09375 C 4.503906 -0.988281 4.546875 -0.859375 4.546875 -0.703125 C 4.546875 -0.515625 4.429688 -0.347656 4.203125 -0.203125 C 3.984375 -0.0664062 3.734375 0 3.453125 0 C 3.148438 0 2.867188 -0.03125 2.609375 -0.09375 C 2.359375 -0.15625 2.132812 -0.316406 1.9375 -0.578125 C 1.738281 -0.847656 1.640625 -1.253906 1.640625 -1.796875 L 1.640625 -5.984375 L 0.828125 -5.984375 C 0.648438 -5.984375 0.503906 -6.039062 0.390625 -6.15625 C 0.273438 -6.269531 0.21875 -6.414062 0.21875 -6.59375 C 0.21875 -6.769531 0.273438 -6.914062 0.390625 -7.03125 C 0.503906 -7.144531 0.648438 -7.203125 0.828125 -7.203125 L 1.640625 -7.203125 L 1.640625 -8.359375 C 1.640625 -8.546875 1.703125 -8.703125 1.828125 -8.828125 C 1.953125 -8.960938 2.113281 -9.03125 2.3125 -9.03125 C 2.488281 -9.03125 2.640625 -8.960938 2.765625 -8.828125 C 2.890625 -8.703125 2.953125 -8.546875 2.953125 -8.359375 L 2.953125 -7.203125 L 4.109375 -7.203125 C 4.285156 -7.203125 4.429688 -7.140625 4.546875 -7.015625 C 4.660156 -6.898438 4.71875 -6.753906 4.71875 -6.578125 C 4.71875 -6.398438 4.660156 -6.253906 4.546875 -6.140625 C 4.429688 -6.035156 4.285156 -5.984375 4.109375 -5.984375 Z M 2.953125 -5.984375 "/></g></g></g><g fill="#689f38" fill-opacity="1"><g transform="translate(273.114254, 235.643452)"><g><path d="M 1.453125 -0.015625 C 1.234375 -0.015625 1.066406 -0.0703125 0.953125 -0.1875 C 0.835938 -0.3125 0.78125 -0.488281 0.78125 -0.71875 L 0.78125 -0.984375 C 0.78125 -1.203125 0.835938 -1.375 0.953125 -1.5 C 1.066406 -1.625 1.234375 -1.6875 1.453125 -1.6875 L 1.59375 -1.6875 C 1.820312 -1.6875 1.992188 -1.625 2.109375 -1.5 C 2.234375 -1.375 2.296875 -1.203125 2.296875 -0.984375 L 2.296875 -0.71875 C 2.296875 -0.25 2.0625 -0.015625 1.59375 -0.015625 Z M 1.453125 -0.015625 "/></g></g></g></svg>